<svg xmlns="http://www.w3.org/2000/svg" width="100" height="100" viewBox="0 0 100 100" fill="none"><g clip-path="url(#clip0_1797_252)">
<rect width="100" height="100" rx="30" fill="url(#paint0_linear_1797_252)"></rect>
<path d="M46.5562 16.6437C44.3425 19.835 41.8067 22.9455 35.8095 29.6512C28.5646 37.7707 25.5861 42.6586 24.7006 47.708L24.2176 50.4549L23.1711 48.3948C22.6076 47.2233 21.0781 45.2035 19.7499 43.8704C16.9324 40.9216 17.1739 40.76 14.4772 47.1829C8.23847 62.0485 7.19198 77.8432 11.7402 89.2348C16.9727 102.363 27.4778 111.21 42.008 114.765C43.3765 115.088 46.5562 115.29 50.2592 115.29C55.5319 115.25 56.7796 115.128 60.3216 114.159C75.697 109.917 86.9669 98.1219 90.3881 82.6503C91.0724 79.4187 91.1529 77.9644 90.9919 71.8647C90.6699 61.2406 88.6976 53.2018 83.8677 43.3453C81.4929 38.417 76.341 30.2571 73.6845 27.2274L72.316 25.652L70.545 26.8235C67.6068 28.7625 64.1856 32.4789 63.0183 34.9834L61.9316 37.3263L61.6901 34.7006C61.3681 31.6305 60.8851 30.1763 59.0336 26.8639C57.7456 24.6017 53.8414 19.5118 50.1787 15.3915L48.6492 13.6141L46.5562 16.6437ZM32.992 77.9644C37.2988 80.4689 40.8005 82.6099 40.8005 82.7715C40.8005 82.9331 40.2772 83.7814 39.6332 84.6701C38.2245 86.6495 36.2523 87.619 33.6763 87.619C30.0941 87.5786 27.3973 85.7204 25.4251 81.802C24.2176 79.4187 23.8554 73.4805 24.9421 73.4805C25.1031 73.4805 28.7256 75.5003 32.992 77.9644ZM75.7372 76.0658C76.1397 83.943 69.257 89.8811 63.1391 86.9727C61.8511 86.3667 59.3153 83.5794 59.3153 82.7715C59.3153 82.3675 74.7712 73.4805 75.214 73.6017C75.4555 73.6825 75.6567 74.7732 75.7372 76.0658Z" fill="#190A26"></path>
<path d="M41.3419 83.0369C41.3419 82.077 30.2019 75.838 24.632 72.8384C24.0352 72.5161 22.2448 83.6368 30.003 86.9363C37.7612 90.2358 41.3419 84.2367 41.3419 83.0369Z" fill="white"></path>
<path d="M58.6601 83.0369C58.6601 82.077 69.8 75.838 75.37 72.8384C75.9668 72.5161 77.7571 83.6368 69.9989 86.9363C62.2408 90.2358 58.6601 84.2367 58.6601 83.0369Z" fill="white"></path>
</g><rect x="0.5" y="0.5" width="99" height="99" rx="29.5" stroke="#C6F64D"></rect><defs>
<linearGradient id="paint0_linear_1797_252" x1="50" y1="0" x2="50" y2="100" gradientUnits="userSpaceOnUse">
<stop stop-color="#EFFF9B"></stop>
<stop offset="0.6" stop-color="#D8FF76"></stop>
<stop offset="1" stop-color="#C6F64D"></stop>
</linearGradient>
<clipPath id="clip0_1797_252">
<rect width="100" height="100" rx="30" fill="white"></rect>
</clipPath>
</defs></svg>